<?xml version="1.0" standalone="no"?>
<!DOCTYPE svg PUBLIC "-//W3C//DTD SVG 20010904//EN"
 "http://www.w3.org/TR/2001/REC-SVG-20010904/DTD/svg10.dtd">
<svg version="1.0" xmlns="http://www.w3.org/2000/svg"
 width="407.242613pt" height="542.951356pt" viewBox="0 0 407.242613 542.951356"
 preserveAspectRatio="xMidYMid meet">
<metadata>
Created by potrace 1.12, written by Peter Selinger 2001-2015
</metadata>
<g transform="translate(-89.141204,561.976468) scale(0.100000,-0.100000)"
fill="#000000" stroke="none">
<path d="M1541 5604 c-124 -33 -227 -121 -284 -241 -30 -64 -32 -75 -31 -173
0 -118 15 -163 79 -247 74 -97 140 -139 248 -158 22 -3 43 -15 51 -28 29 -45
166 -441 166 -480 0 -19 -25 -44 -112 -114 -114 -92 -230 -205 -284 -278 -16
-22 -33 -44 -37 -50 -118 -150 -264 -404 -326 -570 -69 -184 -111 -408 -118
-633 -8 -235 16 -418 87 -652 49 -161 69 -210 140 -347 73 -140 105 -188 221
-333 145 -182 268 -294 476 -433 148 -99 291 -167 471 -226 122 -41 147 -52
145 -67 -1 -11 -15 -57 -32 -104 -17 -47 -31 -100 -31 -119 0 -52 42 -115 93
-140 130 -63 231 18 303 244 l22 70 139 7 c76 3 141 3 145 0 3 -4 15 -32 26
-62 39 -111 82 -206 107 -232 31 -33 95 -52 155 -45 38 4 52 12 86 51 23 24
44 58 47 74 8 38 -14 127 -47 190 -27 53 -22 70 27 82 67 17 216 70 294 106
111 50 328 178 363 214 3 3 23 18 45 35 96 71 219 190 317 307 160 194 273
390 357 618 36 99 90 333 103 450 16 145 16 396 -1 520 -16 117 -63 312 -95
394 -13 33 -27 72 -31 86 -9 29 -111 237 -151 307 -119 205 -390 492 -567 602
-25 15 -37 30 -37 45 0 26 128 411 157 472 17 37 21 39 74 45 99 11 213 112
277 247 66 137 54 271 -34 399 -42 62 -127 128 -204 160 -42 17 -75 23 -142
23 -178 0 -315 -86 -390 -248 -28 -58 -33 -80 -36 -168 -4 -97 -3 -105 27
-166 16 -35 44 -82 61 -103 16 -21 30 -48 30 -59 0 -12 -27 -101 -59 -197 -33
-96 -62 -189 -66 -206 -9 -43 -18 -42 -152 7 -323 118 -674 155 -979 104 -134
-22 -323 -73 -428 -115 -72 -29 -102 -37 -110 -29 -6 6 -41 100 -79 208 -37
108 -70 204 -73 212 -3 9 6 31 20 50 92 126 109 175 104 300 -4 83 -8 103 -37
159 -64 126 -181 212 -319 237 -94 16 -103 16 -171 -2z m158 -360 c44 -56 15
-114 -58 -114 -68 0 -95 67 -46 115 33 34 77 33 104 -1z m2536 1 c46 -45 23
-115 -39 -115 -34 0 -86 43 -86 72 0 27 45 68 75 68 14 0 37 -11 50 -25z
m-1114 -1000 c161 -23 210 -33 321 -69 127 -42 201 -73 195 -83 -3 -5 -168 -6
-368 -3 l-362 5 -11 30 c-6 17 -23 47 -38 66 -48 62 -42 69 65 69 52 0 140 -7
198 -15z m-633 -105 c13 -27 54 -102 93 -165 38 -64 69 -118 69 -121 0 -2 26
-48 58 -102 116 -192 166 -279 222 -377 32 -55 109 -188 172 -295 63 -107 125
-214 139 -237 13 -23 54 -93 90 -155 36 -62 94 -162 129 -223 34 -60 79 -137
100 -170 33 -52 143 -241 251 -430 19 -33 39 -67 44 -77 85 -140 233 -402 239
-425 5 -17 -1 -27 -31 -49 -21 -16 -56 -43 -77 -61 -54 -45 -70 -42 -97 15
-12 26 -30 58 -40 72 -19 28 -259 439 -259 444 0 2 -25 45 -55 96 -31 51 -72
122 -92 159 -20 36 -41 73 -48 81 -12 14 -123 205 -210 360 -23 42 -58 100
-77 130 -19 30 -48 80 -65 110 -40 71 -200 349 -243 420 -18 30 -50 84 -70
120 -20 36 -61 108 -91 160 -31 52 -67 115 -81 140 -14 25 -56 97 -93 160
-142 242 -175 299 -175 308 0 4 -11 19 -25 32 -14 13 -25 28 -25 35 0 9 190
93 215 94 6 0 20 -22 33 -49z m-502 -287 c20 -38 66 -116 100 -174 35 -59 77
-131 92 -161 16 -30 45 -79 64 -109 19 -30 46 -74 60 -99 45 -81 200 -344 218
-370 9 -14 34 -56 55 -95 21 -38 84 -146 140 -240 56 -93 117 -199 136 -235
20 -36 53 -94 76 -130 22 -36 75 -126 118 -200 43 -74 98 -169 123 -210 25
-41 102 -174 172 -295 69 -121 138 -238 152 -260 63 -100 129 -227 125 -239
-7 -16 -153 -76 -187 -76 -21 0 -31 12 -61 68 -45 84 -184 325 -215 372 -12
19 -49 82 -82 140 -120 213 -189 331 -204 348 -9 9 -30 45 -46 78 -17 34 -63
114 -101 178 -39 64 -71 119 -71 122 0 2 -22 40 -50 84 -27 44 -50 82 -50 85
0 7 -209 364 -240 410 -15 22 -46 76 -69 120 -23 44 -64 116 -91 160 -85 140
-148 246 -231 390 -44 77 -96 165 -115 197 -19 31 -34 61 -34 67 0 22 145 141
172 141 4 0 24 -30 44 -67z m2192 -154 c15 -23 49 -66 76 -95 27 -30 46 -57
42 -61 -3 -4 -244 -6 -534 -6 -427 1 -528 4 -535 15 -4 7 -30 50 -57 96 -28
46 -50 85 -50 88 0 2 232 4 515 4 l515 0 28 -41z m-2775 -711 c8 -313 0 -1089
-11 -1100 -16 -16 -112 305 -126 422 -3 25 -10 86 -17 135 -14 105 -6 276 18
392 8 43 18 96 22 118 13 70 86 285 97 285 8 0 13 -79 17 -252z m3114 147 c8
-27 20 -63 27 -80 8 -16 17 -40 21 -53 l6 -22 -512 2 -512 3 -10 30 c-6 17
-28 57 -49 89 -21 32 -37 65 -34 73 5 11 94 13 527 11 l522 -3 14 -50z m-2707
-123 c22 -40 49 -86 60 -102 11 -15 35 -57 52 -92 l32 -63 4 -760 c4 -659 2
-762 -10 -773 -12 -10 -20 -8 -40 10 -14 13 -48 39 -76 58 -28 19 -55 45 -61
57 -7 15 -11 248 -11 700 0 373 -3 761 -6 862 -4 133 -2 182 6 179 6 -2 29
-36 50 -76z m2808 -473 l3 -96 -68 -6 c-114 -11 -652 -8 -674 3 -10 6 -31 34
-45 63 -15 29 -35 64 -45 79 -39 55 -54 53 404 53 l422 0 3 -96z m-2247 -487
c20 -37 59 -108 87 -158 l52 -90 0 -425 c1 -342 -2 -426 -12 -433 -9 -5 -45 3
-98 22 l-85 30 -3 548 c-1 302 0 555 3 562 9 23 20 12 56 -56z m2172 13 c-13
-63 -179 -405 -200 -412 -13 -5 -38 33 -95 137 -52 96 -78 142 -98 170 -27 39
-61 110 -56 118 7 11 451 -1 449 -13z m-1609 -977 c25 -51 59 -114 75 -140 17
-26 27 -49 23 -52 -4 -2 -43 -6 -87 -7 l-80 -4 -3 148 c-3 182 6 189 72 55z"/>
</g>
</svg>
